<svg width="688" height="654" viewBox="0 0 688 654" fill="none" xmlns="http://www.w3.org/2000/svg">
<path d="M330.5 1C290.918 1 290.5 1 231 0.996784C96.5392 47.7542 0 175.614 0 326C0 477.991 98.556 606.933 235.267 652.427C252.439 655.609 258 644.945 258 635.887V571.845C162.311 592.657 142.387 531.253 142.387 531.253C126.735 491.493 104.175 480.915 104.175 480.915C72.9567 459.558 106.554 460.017 106.554 460.017C141.097 462.425 159.272 495.477 159.272 495.477C189.945 548.052 239.739 532.859 259.376 524.058C262.443 501.841 271.359 486.648 281.22 478.077C204.823 469.333 124.499 439.835 124.499 308.055C124.499 270.473 137.944 239.799 159.931 215.719C156.377 207.033 144.595 172.031 163.285 124.674C163.285 124.674 192.181 115.443 257.914 159.934C285.348 152.309 314.76 148.496 344 148.353C373.24 148.496 402.681 152.309 430.172 159.934C495.847 115.443 524.686 124.674 524.686 124.674C543.405 172.06 531.623 207.062 528.069 215.719C550.142 239.799 563.472 270.501 563.472 308.055C563.472 440.179 483.005 469.276 406.407 477.79C418.734 488.454 430 509.381 430 541.487V635.887C430 645.031 435.504 655.781 452.962 652.399C589.559 606.847 688 477.933 688 326C688 172.459 586.887 45.2381 448 1C412.5 1 366.933 1 330.5 1Z" fill="black" fill-opacity="0.05"/>
</svg>
